# xmcd CD database file
#
# Track frame offsets:
#	183
#	15705
#	30930
#	45933
#	60480
#	70983
#	88755
#	106080
#	118600
#	127683
#
# Disc length: 1874 seconds
#
# Revision: 2
# Processed by: cddbd v1.5.1PL2 Copyright (c) Steve Scherf et al.
# Submitted via: CDex 1.51
#
DISCID=6e07500a
DTITLE=Camarón - Castillo De Arena
DYEAR=1977
DGENRE=Paco de Lucia
TTITLE0=Samara (Bulerias)
TTITLE1=Donde Se Divisa El Mar (Taranta/Minera)
TTITLE2=Y Mira Que Mira Y Mira (Tangos)
TTITLE3=De Tus Ojos Soy Cautivo (Soleá)
TTITLE4=Dos Estrellas Relucientes - De La Alegre Primavera (Fandangos)
TTITLE5=Como Castillo De Arena (Bulerias)
TTITLE6=Vivo Pa Quererte (Tientos/Tangos)
TTITLE7=De Lo Que Yo Soy Pa Ti - Por Culpa De Tu Carino (Fandangos)
TTITLE8=Que He Dejao De Quererte (Granainas)
TTITLE9=Por Cositas Malas (Siguiriyas)
EXTD=YEAR: 1977
EXTT0=
EXTT1=
EXTT2=
EXTT3=
EXTT4=
EXTT5=
EXTT6=
EXTT7=
EXTT8=
EXTT9=
PLAYORDER=
